<?xml version="1.0" encoding="UTF-8"?><svg version="1.1" viewBox="0 0 24 24" xmlns="http://www.w3.org/2000/svg" xmlns:xlink="http://www.w3.org/1999/xlink"><path d="M11.99 2c-5.52 0-9.99 4.48-9.99 10 0 5.52 4.47 10 9.99 10 5.53 0 10.01-4.48 10.01-10 0-5.52-4.48-10-10.01-10Zm.01 18c-4.42 0-8-3.58-8-8 0-4.42 3.58-8 8-8 4.42 0 8 3.58 8 8 0 4.42-3.58 8-8 8Z" fill="currentColor"></path><path fill="none" d="M0 0h24v24h-24Z"></path><path d="M12.5 7h-1.5v6l5.25 3.15 .75-1.23 -4.5-2.67Z" fill="currentColor"></path></svg>
