<?xml version="1.0" encoding="UTF-8"?><svg version="1.1" viewBox="0 0 24 24" xmlns="http://www.w3.org/2000/svg" xmlns:xlink="http://www.w3.org/1999/xlink"><g fill="currentColor"><rect width="24" height="24" opacity="0"></rect><path d="M9 11l-1.74846e-07-3.55271e-15c2.20914 9.65645e-08 4-1.79086 4-4 9.65645e-08-2.20914-1.79086-4-4-4 -2.20914-9.65645e-08-4 1.79086-4 4l4.61853e-14-6.03983e-07c-3.33571e-07 2.20914 1.79086 4 4 4Z"></path><path d="M17 13l-1.31134e-07-3.55271e-15c1.65685 7.24234e-08 3-1.34315 3-3 7.24234e-08-1.65685-1.34315-3-3-3 -1.65685-7.24234e-08-3 1.34315-3 3l3.37508e-14 4.52987e-07c2.50178e-07 1.65685 1.34315 3 3 3Z"></path><path d="M21 20h-4.37114e-08c.552285 2.41411e-08 1-.447715 1-1l5.00309e-08 5.87491e-05c-.00233541-2.76142-2.2428-4.9981-5.00423-4.99577 -1.1062.000935548-2.18087.368688-3.05573 1.04567l-4.33801e-08-4.32107e-08c-2.73901-2.72832-7.17116-2.71964-9.89948.0193706 -1.30454 1.30965-2.03809 3.08215-2.04057 4.93067l1.24345e-14 1.50996e-07c8.33927e-08.552285.447715 1 1 1h12 -4.37114e-08c.552285 2.41411e-08 1-.447715 1-1"></path></g></svg>
