<?xml version="1.0" encoding="UTF-8"?><svg version="1.1" viewBox="3.29564 -45.105 24 24" xmlns="http://www.w3.org/2000/svg" xmlns:xlink="http://www.w3.org/1999/xlink"><path d="M11.0859-35.084h25.8242c2.13411 0 3.60221-.361653 4.4043-1.08496 .80208-.723307 1.20312-1.69368 1.20312-2.91113 0-1.36068-.44043-2.78223-1.32129-4.26465 -.88086-1.48242-2.1377-2.87174-3.77051-4.16797 -1.63281-1.29623-3.58431-2.34896-5.85449-3.1582 -2.27018-.809247-4.79459-1.21387-7.57324-1.21387 -2.77865 0-5.30306.404623-7.57324 1.21387 -2.27018.809247-4.22168 1.86198-5.85449 3.1582 -1.63281 1.29623-2.88965 2.68555-3.77051 4.16797 -.88086 1.48242-1.32129 2.90397-1.32129 4.26465 0 1.21745.40104 2.18782 1.20312 2.91113 .80208.723307 2.27018 1.08496 4.4043 1.08496Zm12.9121-20.4316c1.70443 0 3.23698-.44043 4.59766-1.32129 1.36068-.88086 2.43848-2.0625 3.2334-3.54492 .79492-1.48242 1.19238-3.12597 1.19238-4.93066 0-1.71875-.40104-3.31217-1.20312-4.78027 -.80208-1.4681-1.88346-2.64974-3.24414-3.54492 -1.36068-.89518-2.88607-1.34277-4.57617-1.34277 -1.69011 0-3.21908.44759-4.58691 1.34277 -1.36784.89518-2.4528 2.07682-3.25488 3.54492 -.80208 1.4681-1.19596 3.06152-1.18164 4.78027 0 1.80469.39746 3.44824 1.19238 4.93066 .79492 1.48242 1.87272 2.66406 3.2334 3.54492 1.36068.88086 2.89323 1.32129 4.59766 1.32129Z" transform="matrix(.601557 0 0 .601557 .859444 1.77636e-15)" fill="currentColor"></path></svg>
