<?xml version="1.0" encoding="UTF-8"?><svg version="1.1" viewBox="5.49654 -101.589 49 56" xmlns="http://www.w3.org/2000/svg" xmlns:xlink="http://www.w3.org/1999/xlink"><path d="M14.0723-45.4395h31.582c2.69271 0 4.79818-.759113 6.31641-2.27734 1.51823-1.51823 2.27734-3.6237 2.27734-6.31641v-23.2676c0-2.69271-.759113-4.79818-2.27734-6.31641 -1.51823-1.51823-3.6237-2.27734-6.31641-2.27734h-31.582c-2.69271 0-4.79818.759113-6.31641 2.27734 -1.51823 1.51823-2.27734 3.6237-2.27734 6.31641v23.2676c0 2.69271.759113 4.79818 2.27734 6.31641 1.51823 1.51823 3.6237 2.27734 6.31641 2.27734Zm-2.85742-44.3008h37.4043c-.100261-1.26041-.544271-2.26302-1.33203-3.00781 -.78776-.744793-1.94075-1.11719-3.45898-1.11719h-27.8438c-1.50391 0-2.64974.372397-3.4375 1.11719 -.78776.744793-1.23177 1.7474-1.33203 3.00781Zm4.25391-7.66992h28.875c-.114583-1.20313-.562173-2.14486-1.34277-2.8252 -.7806-.68034-1.80111-1.02051-3.06152-1.02051h-20.0664c-1.26041 0-2.28092.34017-3.06152 1.02051 -.7806.68034-1.22819 1.62207-1.34277 2.8252Z" transform="matrix(1.00329 0 0 1.00329 .0350399 0)" fill="currentColor"></path></svg>
