<?xml version="1.0" encoding="UTF-8"?><svg version="1.1" viewBox="0 0 24 24" xmlns="http://www.w3.org/2000/svg" xmlns:xlink="http://www.w3.org/1999/xlink"><path d="M21.71 20.29l-3.71-3.68 2.54579e-07-3.17423e-07c3.10986-3.87753 2.48753-9.54194-1.39-12.6518 -3.87753-3.10986-9.54194-2.48753-12.6518 1.39 -3.10986 3.87753-2.48753 9.54194 1.39 12.6518 3.2902 2.6388 7.9716 2.6388 11.2618-5.09158e-07l3.68 3.68 -3.12092e-08-3.14662e-08c.38892.392122 1.02208.394718 1.4142.00579839 .00194069-.00192484.00387348-.00385763.00579832-.00579832l2.47231e-08-2.55772e-08c.374653-.387597.374653-1.0024-3.3566e-07-1.39Zm-10.71-2.29l-3.0598e-07-7.10543e-15c-3.86599-1.68988e-07-7-3.13401-7-7 1.68988e-07-3.86599 3.13401-7 7-7 3.86599 1.68988e-07 7 3.13401 7 7l7.10543e-15-3.0598e-07c0 3.86599-3.13401 7-7 7Z" fill="currentColor"></path></svg>
